<svg width="16" height="16" viewBox="0 0 16 16" fill="none" xmlns="http://www.w3.org/2000/svg">
<path d="M16 11.7778C16 12.2493 15.8127 12.7015 15.4793 13.0349C15.1459 13.3683 14.6937 13.5556 14.2222 13.5556H1.77778C1.30628 13.5556 0.854097 13.3683 0.520699 13.0349C0.187301 12.7015 0 12.2493 0 11.7778V3.77778C0 3.30628 0.187301 2.8541 0.520699 2.5207C0.854097 2.1873 1.30628 2 1.77778 2H14.2222C14.6937 2 15.1459 2.1873 15.4793 2.5207C15.8127 2.8541 16 3.30628 16 3.77778V11.7778Z" fill="#EEEEEE"/>
<path d="M9.5294 5.5932C8.95004 5.18762 8.2333 5.02878 7.53684 5.15164C6.84038 5.2745 6.22124 5.66898 5.81562 6.24831C5.62409 6.53826 5.55328 6.89151 5.61826 7.23288C5.68325 7.57425 5.87889 7.87678 6.16356 8.07608C6.44823 8.27537 6.79944 8.3557 7.14244 8.29996C7.48544 8.24423 7.79315 8.05682 8.00006 7.77764C8.10051 7.63421 8.22823 7.51197 8.37591 7.41789C8.5236 7.32382 8.68838 7.25975 8.86083 7.22936C9.03328 7.19896 9.21002 7.20283 9.38098 7.24074C9.55193 7.27865 9.71374 7.34986 9.85717 7.45031C10.0006 7.55076 10.1229 7.67847 10.2169 7.82616C10.311 7.97385 10.3751 8.13862 10.4055 8.31107C10.4359 8.48352 10.432 8.66027 10.3941 8.83122C10.3562 9.00218 10.285 9.16399 10.1845 9.30742C10.3854 9.02054 10.5278 8.69689 10.6036 8.35496C10.6794 8.01303 10.6871 7.65952 10.6263 7.31462C10.5655 6.96971 10.4373 6.64017 10.2491 6.3448C10.0609 6.04944 9.81632 5.79404 9.5294 5.5932Z" fill="#C60C30"/>
<path d="M9.85694 7.45071C9.56732 7.24788 9.20899 7.16839 8.86076 7.22973C8.51253 7.29108 8.20293 7.48823 8.00006 7.77782C7.79365 8.05847 7.48562 8.24722 7.14185 8.3037C6.79809 8.36019 6.44586 8.27993 6.1605 8.08009C5.87514 7.88025 5.67929 7.57669 5.61484 7.23433C5.55039 6.89196 5.62245 6.53797 5.81561 6.24805C5.60886 6.53462 5.46112 6.85942 5.38099 7.20358C5.30086 7.54774 5.28993 7.9044 5.34884 8.25282C5.40774 8.60124 5.53531 8.93449 5.72412 9.23318C5.91294 9.53187 6.15924 9.79006 6.4487 9.99273C6.73817 10.1954 7.06503 10.3385 7.41029 10.4138C7.75555 10.489 8.11233 10.4949 8.45988 10.4311C8.80744 10.3673 9.13884 10.235 9.43483 10.042C9.73082 9.84895 9.9855 9.59902 10.1841 9.30671C10.2845 9.1634 10.3558 9.00168 10.3937 8.83082C10.4316 8.65996 10.4355 8.48329 10.4051 8.31092C10.3748 8.13855 10.3107 7.97386 10.2166 7.82626C10.1226 7.67866 10.0004 7.55105 9.85694 7.45071Z" fill="#003478"/>
<path d="M10.8151 11.1431L11.672 10.1217L12.0124 10.4075L11.1555 11.4288L10.8151 11.1431ZM11.9573 9.78173L12.8142 8.76084L13.1546 9.04662L12.2977 10.0675L11.9573 9.78173ZM11.496 11.7155L12.3528 10.6946L12.6933 10.9804L11.8364 12.0013L11.496 11.7155ZM12.6391 10.3528L13.4968 9.33196L13.8373 9.61818L12.9795 10.6386L12.6391 10.3528ZM12.1764 12.2871L13.0342 11.2662L13.3742 11.552L12.5168 12.5728L12.1764 12.2871ZM13.3191 10.9248L14.1755 9.90262L14.5164 10.1884L13.66 11.2106L13.3191 10.9248ZM13.3208 4.63062L13.6613 4.34484L14.5191 5.36662L14.1782 5.6524L13.3208 4.63062ZM12.1777 3.26796L12.5182 2.98218L13.3751 4.00396L13.0342 4.28929L12.1777 3.26796ZM11.4964 3.8404L11.8368 3.55462L13.8368 5.93773L13.4964 6.22351L11.4964 3.8404ZM10.8155 4.41107L11.1564 4.12529L12.0128 5.14662L11.6724 5.43196L10.8155 4.41107ZM11.9577 5.77329L12.2982 5.48751L13.156 6.5084L12.816 6.79418L11.9577 5.77329ZM2.8444 9.04618L3.18484 8.7604L5.1844 11.144L4.84351 11.4297L2.8444 9.04618ZM2.1644 9.61773L2.5044 9.3324L3.36173 10.3537L3.02084 10.6395L2.1644 9.61773ZM3.30529 10.9804L3.64573 10.6946L4.50351 11.7155L4.16307 12.0013L3.30529 10.9804ZM1.48262 10.1888L1.82307 9.90307L3.82307 12.2862L3.48218 12.572L1.48262 10.1888ZM1.48218 5.36573L3.48129 2.98262L3.82218 3.26796L1.82218 5.65151L1.48218 5.36573ZM2.16307 5.93773L4.16307 3.55418L4.50351 3.83996L2.50351 6.22307L2.16307 5.93773ZM2.8444 6.50884L4.8444 4.12529L5.18484 4.41107L3.18484 6.79462L2.8444 6.50884Z" fill="#292F33"/>
</svg>
