<svg width="300" height="300" viewBox="0 0 300 300" fill="none" xmlns="http://www.w3.org/2000/svg">
<path fill-rule="evenodd" clip-rule="evenodd" d="M300 259.631V255.893L299.065 250.285V225.986L298.131 221.313V201.687L299.065 197.949V120.379L298.131 113.837V103.556L299.065 101.687C299.01 99.5068 299.01 97.3254 299.065 95.145V69.9114C299.065 67.1076 298.131 63.3693 296.262 60.5656L294.393 58.6964L286.916 57.7619H277.57L272.897 58.6964H260.748L253.271 57.7619H210.28L205.607 58.6964H175.701L178.505 56.8273L179.439 55.8927L181.308 53.089L184.112 51.2198H185.047L189.72 47.4815L192.523 44.6777L196.262 41.874L198.131 39.0703L200.935 36.2665L204.673 32.5282L207.477 29.7245L211.215 25.9862L213.084 24.117L216.822 21.3133L219.626 17.5749L220.561 15.7058L222.43 13.8366L224.299 11.9675L225.234 10.0983V6.35998C225.234 4.49083 224.299 2.62167 222.43 2.62167C220.436 1.52382 218.11 1.1915 215.888 1.68709C214.953 1.68709 214.019 1.68709 213.084 3.55625L211.215 5.4254H210.28L209.346 7.29456L205.607 9.16372L203.738 11.9675L201.869 13.8366L200 15.7058L198.131 18.5095L194.393 20.3787L192.523 23.1824L189.72 25.9862L186.916 28.7899L183.178 32.5282L181.308 33.4628C180.319 34.0002 179.381 34.6258 178.505 35.3319L175.701 38.1357L171.963 40.9394L169.159 43.7432H168.224L165.421 46.5469L163.551 48.4161L161.682 50.2852L157.009 54.9581C155.651 55.7326 154.395 56.6746 153.271 57.7619L151.402 58.6964H150.467L148.598 57.7619L145.794 54.9581L142.991 53.089L141.122 51.2198L138.318 48.4161L135.514 46.5469L129.907 42.8086L128.037 40.9394L124.299 37.2011L122.43 36.2665C122.43 34.3974 120.561 33.4628 119.626 32.5282L117.757 30.6591L114.019 26.9207L111.215 25.0516L108.411 22.2478L104.673 18.5095L102.804 16.6404L99.0654 13.8366V12.902L97.1963 11.0329L93.4579 8.22914L89.7196 5.4254L88.785 4.49083L87.8505 3.55625L85.0467 2.62167H78.5047L75.7009 4.49083V11.0329L76.6355 12.902L79.4393 15.7058L82.243 17.5749L86.9159 22.2478L89.7196 25.0516L90.6542 25.9862L92.5234 28.7899L94.3925 29.7245L96.2617 31.5936V32.5282L99.0654 34.3974L100.935 36.2665L104.673 39.0703L107.477 40.9394L109.346 42.8086L111.215 44.6777L114.019 47.4815H114.953L117.757 50.2852L119.626 54.0235L123.364 57.7619L124.299 58.6964H120.561L114.019 59.631H85.0467C83.2362 59.0354 81.3451 58.7202 79.4393 58.6964H66.3551C65.4211 58.7432 64.4854 58.7432 63.5514 58.6964H21.4953L16.8224 59.631H10.2804C8.14415 59.8921 6.16349 60.8824 4.6729 62.4347L0.934579 66.1731V140.005L0 144.678L0.934579 153.089V262.435L1.86916 265.238C1.86916 267.108 3.73832 268.977 5.60748 269.911H7.47664C8.41122 271.781 10.2804 271.781 12.1495 271.781H57.0093V272.715L60.7477 279.257L64.486 282.996L66.3551 287.668L68.2243 290.472L70.0935 291.407L73.8318 294.21L74.7664 296.08L77.5701 297.014L83.1776 298.883H87.8505L91.5888 297.949C94.3925 297.949 96.2617 296.08 97.1963 294.21L100.935 290.472H101.869L103.738 287.668L105.607 283.93L107.477 282.061L112.15 274.584V271.781H148.598L151.402 270.846L158.879 271.781H178.505C180.374 271.781 183.178 270.846 185.981 271.781L188.785 270.846C188.785 272.715 189.72 274.584 191.589 275.519C193.763 277.767 195.647 280.279 197.196 282.996L200 286.734L201.869 288.603L204.673 291.407L206.542 293.276C207.477 295.145 209.346 296.08 212.15 296.08L216.822 297.949H217.757L225.234 297.014L228.972 295.145L231.776 293.276V292.341L235.514 286.734L236.449 284.865L241.122 280.192L242.056 278.323L242.991 274.584L245.794 271.781H276.636C276.636 271.781 277.57 270.846 278.505 271.781L282.243 270.846H291.589C291.589 270.846 293.458 270.846 294.393 268.977L296.262 267.108L298.131 265.238L300 260.566V258.696" fill="#231916"/>
<path fill-rule="evenodd" clip-rule="evenodd" d="M89.7198 285.8L94.3927 281.127L96.2607 278.322L98.1302 275.518L99.9996 273.649C99.0657 273.602 98.1301 273.602 97.1962 273.649H94.3927C92.5344 273.367 90.6441 273.367 88.7858 273.649H72.8947C72.8947 272.715 71.9607 272.715 71.0267 273.649L72.8947 275.518L74.7642 279.257V280.191L78.5031 283.93C81.3065 287.668 81.3065 286.734 84.11 287.668C85.9794 287.668 87.8489 287.668 89.7169 285.8M233.643 271.781L232.709 272.715H203.736L206.54 278.322L212.147 284.866L214.018 285.8C215.886 287.668 218.69 287.668 221.494 285.8L223.363 284.864L224.297 283.93L227.101 282.061L229.904 277.388L232.709 273.649V271.781M239.25 138.136V140.004L237.382 143.743V144.677H236.447V145.612H234.577L231.774 148.416H227.101L225.231 149.35H217.755L215.886 146.546H214.952V145.612L213.082 143.743V142.809L212.148 141.873V140.004L211.213 138.136V128.79L213.082 126.921V125.986L214.952 125.051L217.755 123.182V122.249H219.624L220.558 121.315H229.904V122.249C231.774 122.249 233.643 124.118 234.577 125.052L237.382 127.856L238.316 129.725V131.595L239.25 134.398V137.202M172.895 218.511L171.026 222.25H129.905L128.036 220.38V215.707L130.839 212.904L132.709 210.099L135.512 208.231L137.381 205.426L141.12 201.689L144.858 198.885L146.727 196.08H149.531L154.204 197.016L159.811 202.623L161.68 205.426C162.985 206.612 164.233 207.86 165.419 209.165L167.288 211.034L171.026 213.838L172.895 216.641V218.511ZM88.7829 166.175V169.912H87.8489V170.848L86.9134 172.716L85.0454 175.521C83.6505 176.703 82.0722 177.65 80.3725 178.324H71.0267L69.1572 177.389C67.2878 177.389 66.3538 175.521 64.4843 174.585L60.7454 167.109V160.566L61.6809 158.697C61.6809 156.829 62.6149 155.893 63.5489 155.893V154.959H64.4843V154.024H66.3538L69.1572 152.156L71.0267 151.221H71.9607L75.6996 150.287H79.4371L81.3065 151.221C82.9723 151.962 84.5415 152.903 85.9794 154.024L87.8489 156.829V157.763L89.7183 160.566V166.173M268.223 214.772V200.755C268.767 195.472 268.767 190.148 268.223 184.866V180.192C268.975 176.819 269.289 173.364 269.157 169.911V130.659L268.223 125.986V102.622C268.223 99.817 268.223 97.015 266.354 95.1441L262.615 92.3407C261.06 92.2106 259.497 92.2106 257.942 92.3407L252.335 91.4067H199.065C197.513 91.6023 195.942 91.6023 194.39 91.4067H163.551C160.459 91.9478 157.297 91.9478 154.205 91.4067H96.2607C94.3927 90.4712 93.4573 90.4712 92.5232 91.4067H89.7198C89.7198 91.4067 88.7843 90.4712 88.7843 91.4067H75.7025C75.7025 90.4712 73.833 90.4712 73.833 91.4067H47.6636C45.4993 91.0219 43.2841 91.0219 41.1198 91.4067L37.3823 93.2761L34.5788 95.1441L32.7094 100.751V123.182L31.7754 128.789V225.986L32.7094 233.462V237.201L40.1872 241.874H138.317C138.317 242.808 138.317 241.874 139.252 241.874H260.748L264.486 240.004V239.07C266.355 239.07 266.355 237.201 267.289 236.267L268.224 232.528V213.836" fill="#FEFEFE"/>
<path fill-rule="evenodd" clip-rule="evenodd" d="M276.635 231.594L275.701 238.135V246.547C275.701 248.417 273.832 248.417 272.898 249.351H261.683C258.602 250.007 255.418 250.007 252.337 249.351H246.73L243.925 248.417C241.439 248.167 238.935 248.167 236.449 248.417H193.459C192.523 249.351 190.655 249.351 189.72 248.417H166.355L163.552 249.351C161.085 249.854 158.542 249.854 156.075 249.351H124.299L117.758 248.417H114.019C111.841 248.264 109.655 248.264 107.477 248.417H102.804L90.6544 249.351H87.851C85.9815 248.417 83.1781 248.417 80.3746 249.351H76.6357L71.0288 248.417H59.8135L56.0746 249.351H28.974C28.4751 249.242 28.0037 249.033 27.5888 248.735C27.1739 248.438 26.8244 248.058 26.5617 247.62C26.299 247.183 26.1288 246.696 26.0615 246.19C25.9943 245.683 26.0314 245.169 26.1706 244.678V168.976L25.2351 156.828V99.8189L26.1706 95.1446V88.6036C26.1706 86.7342 28.0386 85.7987 29.908 85.7987H68.2253C71.3283 85.4078 74.4681 85.4078 77.5712 85.7987H129.907L134.582 84.8647H187.852C191.265 85.2948 194.719 85.2948 198.133 84.8647H210.282L217.759 85.7987H262.618L270.095 84.8647H273.833C275.703 85.7987 275.703 86.7342 275.703 88.6036V105.424L276.637 112.902V231.594M287.852 224.117V214.771L288.786 209.164V75.5189L286.918 72.7155C285.822 71.9716 284.497 71.6402 283.179 71.78H276.637L268.227 70.846H266.357L260.75 69.912H249.533C247.717 70.4814 245.83 70.7958 243.927 70.846H234.581C233.647 70.846 231.777 71.78 230.843 70.846H210.282C209.039 70.721 207.786 70.721 206.543 70.846H196.263C195.03 71.0978 193.758 71.0978 192.525 70.846H168.224C167.295 70.987 166.35 70.987 165.421 70.846H162.618L157.945 69.912H153.272C151.407 69.7246 149.529 69.7246 147.665 69.912L142.99 70.846H113.085L110.28 69.912H85.0475C83.1781 70.846 81.3086 71.78 79.4406 70.846H72.8968C71.6637 71.0977 70.3925 71.0977 69.1593 70.846H31.776C30.5425 70.5942 29.2707 70.5942 28.0371 70.846H23.3642C22.4351 70.987 21.4899 70.987 20.5608 70.846H16.8233C14.9538 71.78 14.0184 73.6495 14.0184 75.5189V94.2106L13.0844 99.8175V156.826L12.1504 162.435V175.52L13.0844 180.192V245.613L12.1504 248.417V251.22L13.0844 255.893V259.63L16.8233 261.5C19.8931 262.253 23.0993 262.253 26.1691 261.5L29.9066 262.435H39.2524L42.9913 263.369H70.0933L74.7663 262.435H85.0475L87.851 263.369H157.945C157.945 264.303 159.814 263.369 159.814 263.369H203.738H248.598L252.337 261.5H256.076L257.944 263.369H281.308L285.981 261.5H286.917L288.785 256.827V225.051" fill="#FEFEFE"/>
</svg>
