<svg width="64" height="64" viewBox="0 0 64 64" fill="none" xmlns="http://www.w3.org/2000/svg">
<path fill-rule="evenodd" clip-rule="evenodd" d="M26.1665 39.7997V23.5255C31.9439 26.244 36.4184 28.8702 41.7105 31.7015C37.3457 34.1222 31.9439 36.8383 26.1665 39.7997ZM58.364 15.4315C57.3674 14.1185 55.6688 13.0965 53.8605 12.7581C48.5453 11.7487 15.3859 11.7459 10.0735 12.7581C8.62342 13.0299 7.33213 13.687 6.22287 14.7079C1.54895 19.0461 3.01353 42.31 4.14013 46.0784C4.61387 47.7095 5.2263 48.8859 5.99759 49.6581C6.9913 50.6789 8.35186 51.3819 9.91464 51.6971C14.291 52.6023 36.8373 53.1085 53.768 51.8331C55.3279 51.5612 56.7087 50.8356 57.7977 49.7713C62.1192 45.4506 61.8246 20.8802 58.364 15.4315Z" fill="#FF0000"/>
<path d="M26.1665 23.5254V39.7997C31.9439 36.8382 37.3457 34.1221 41.7106 31.7015C36.4185 28.8701 31.9439 26.2439 26.1665 23.5254Z" fill="white"/>
</svg>
